HIERARCHY
ROOT Hips
{
	OFFSET 0.000000 0.000000 0.000000
	CHANNELS 6 Xposition Yposition Zposition Zrotation Yrotation Xrotation 
	JOINT LHipJoint
	{
		OFFSET 0.000000 0.000000 0.000000
		CHANNELS 3 Zrotation Yrotation Xrotation
		JOINT LeftUpLeg
		{
			OFFSET 1.363060 -1.794630 0.839290
			CHANNELS 3 Zrotation Yrotation Xrotation
			JOINT LeftLeg
			{
				OFFSET 2.448110 -6.726130 0.000000
				CHANNELS 3 Zrotation Yrotation Xrotation
				JOINT LeftFoot
				{
					OFFSET 2.562200 -7.039590 0.000000
					CHANNELS 3 Zrotation Yrotation Xrotation
					JOINT LeftToeBase
					{
						OFFSET 0.157640 -0.433110 2.322550
						CHANNELS 3 Zrotation Yrotation Xrotation
						End Site
						{
							OFFSET 0.000000 0.000000 0.000000
						}
					}
				}
			}
		}
	}
	JOINT RHipJoint
	{
		OFFSET 0.000000 0.000000 0.000000
		CHANNELS 3 Zrotation Yrotation Xrotation
		JOINT RightUpLeg
		{
			OFFSET -1.305520 -1.794630 0.839290
			CHANNELS 3 Zrotation Yrotation Xrotation
			JOINT RightLeg
			{
				OFFSET -2.542530 -6.985550 0.000000
				CHANNELS 3 Zrotation Yrotation Xrotation
				JOINT RightFoot
				{
					OFFSET -2.568260 -7.056230 0.000000
					CHANNELS 3 Zrotation Yrotation Xrotation
					JOINT RightToeBase
					{
						OFFSET -0.164730 -0.452590 2.363150
						CHANNELS 3 Zrotation Yrotation Xrotation
						End Site
						{
							OFFSET 0.000000 0.000000 0.000000
						}
					}
				}
			}
		}
	}
	JOINT LowerBack
	{
		OFFSET 0.000000 0.000000 0.000000
		CHANNELS 3 Zrotation Yrotation Xrotation
		JOINT Spine
		{
			OFFSET 0.028270 2.035590 -0.193380
			CHANNELS 3 Zrotation Yrotation Xrotation
			JOINT Spine1
			{
				OFFSET 0.056720 2.048850 -0.042750
				CHANNELS 3 Zrotation Yrotation Xrotation
				JOINT Neck
				{
					OFFSET 0.000000 0.000000 0.000000
					CHANNELS 3 Zrotation Yrotation Xrotation
					JOINT Neck1
					{
						OFFSET -0.054170 1.746240 0.172020
						CHANNELS 3 Zrotation Yrotation Xrotation
						JOINT Head
						{
							OFFSET 0.104070 1.761360 -0.123970
							CHANNELS 3 Zrotation Yrotation Xrotation
							End Site
							{
								OFFSET 0.000000 0.000000 0.000000
							}
						}
					}
				}
				JOINT LeftShoulder
				{
					OFFSET 0.000000 0.000000 0.000000
					CHANNELS 3 Zrotation Yrotation Xrotation
					JOINT LeftArm
					{
						OFFSET 3.362410 1.200890 -0.311210
						CHANNELS 3 Zrotation Yrotation Xrotation
						JOINT LeftForeArm
						{
							OFFSET 4.983000 -0.000000 -0.000000
							CHANNELS 3 Zrotation Yrotation Xrotation
							JOINT LeftHand
							{
								OFFSET 3.483560 -0.000000 -0.000000
								CHANNELS 3 Zrotation Yrotation Xrotation
								JOINT LeftFingerBase
								{
									OFFSET 0.000000 0.000000 0.000000
									CHANNELS 3 Zrotation Yrotation Xrotation
									JOINT LeftHandIndex1
									{
										OFFSET 0.715260 -0.000000 -0.000000
										CHANNELS 3 Zrotation Yrotation Xrotation
										End Site
										{
											OFFSET 0.000000 0.000000 0.000000
										}
									}
								}
								JOINT LThumb
								{
									OFFSET 0.000000 0.000000 0.000000
									CHANNELS 3 Zrotation Yrotation Xrotation
									End Site
									{
										OFFSET 0.000000 0.000000 0.000000
									}
								}
							}
						}
					}
				}
				JOINT RightShoulder
				{
					OFFSET 0.000000 0.000000 0.000000
					CHANNELS 3 Zrotation Yrotation Xrotation
					JOINT RightArm
					{
						OFFSET -3.136600 1.374050 -0.404650
						CHANNELS 3 Zrotation Yrotation Xrotation
						JOINT RightForeArm
						{
							OFFSET -5.241900 -0.000000 -0.000000
							CHANNELS 3 Zrotation Yrotation Xrotation
							JOINT RightHand
							{
								OFFSET -3.444170 -0.000000 -0.000000
								CHANNELS 3 Zrotation Yrotation Xrotation
								JOINT RightFingerBase
								{
									OFFSET 0.000000 0.000000 0.000000
									CHANNELS 3 Zrotation Yrotation Xrotation
									JOINT RightHandIndex1
									{
										OFFSET -0.622530 -0.000000 -0.000000
										CHANNELS 3 Zrotation Yrotation Xrotation
										End Site
										{
											OFFSET 0.000000 0.000000 0.000000
										}
									}
								}
								JOINT RThumb
								{
									OFFSET 0.000000 0.000000 0.000000
									CHANNELS 3 Zrotation Yrotation Xrotation
									End Site
									{
										OFFSET 0.000000 0.000000 0.000000
									}
								}
							}
						}
					}
				}
			}
		}
	}
}
MOTION
Frames: 6
Frame Time: 0.008333
3.547005 17.209131 0.908013 -177.392264 -78.892653 -172.670412 -11.690715 1.855142 -0.452203 -3.446104 22.650169 -13.642240 -2.647292 -1.010094 -1.840379 0.644967 5.475618 2.484872 1.035300 -0.000000 -36.311800 9.304241 -1.550090 2.990975 2.436025 0.613762 -10.593432 2.531996 1.471895 -1.259666 0.199073 -0.631996 0.406799 -0.816700 0.000000 -43.022100 1.613907 -1.441540 -3.679643 -0.135608 -1.632994 -3.857399 -6.120382 -1.460700 -2.623064 7.341552 -6.784037 1.086838 -3.947267 -0.384673 2.395876 0.000000 0.000000 0.000000 9.734855 1.616186 -2.647125 -85.991265 -16.799868 16.355826 -179.262666 -54.164913 179.921279 5.407423 -5.649446 -0.316695 -0.088562 1.070795 -0.000000 0.000000 0.000000 0.000000 0.000000 0.000000 0.000000 0.526862 -4.659376 -3.340521 88.941883 21.475222 32.183214 -178.580263 60.372916 179.828273 -11.757051 15.230692 -1.719373 0.164274 -1.130862 -0.000000 0.000000 0.000000 0.000000 0.000000 0.000000 0.000000 
3.544006 17.209548 0.909456 -177.289089 -78.683146 -172.770885 -11.698565 1.871883 -0.442199 -3.439134 22.780687 -13.684178 -2.651525 -1.010071 -1.789634 0.652911 5.530573 2.436847 1.038600 -0.000000 -36.298000 9.294228 -1.562833 3.043153 2.447180 0.701116 -10.624936 2.547597 1.484754 -1.327825 0.212223 -0.501074 0.487180 -0.787600 0.000000 -43.019100 1.695786 -1.455168 -3.757934 -0.140921 -1.657761 -3.862660 -6.221650 -1.481593 -2.595390 7.375074 -6.874441 1.118142 -3.939837 -0.384343 2.405401 0.000000 0.000000 0.000000 9.610130 1.565625 -2.701884 -85.307271 -17.726657 15.713922 -179.165946 -54.876353 179.923897 5.301045 -5.394599 -0.297890 -0.089261 1.057715 -0.000000 0.000000 0.000000 0.000000 0.000000 0.000000 0.000000 0.654768 -4.799109 -3.326551 89.017204 21.601078 32.416970 -178.580353 60.459144 179.828591 -11.722753 15.221846 -1.713042 0.162333 -1.129027 -0.000000 0.000000 0.000000 0.000000 0.000000 0.000000 0.000000 
3.541710 17.209952 0.910985 -177.196391 -78.498420 -172.871703 -11.706261 1.891336 -0.424910 -3.431956 22.893487 -13.725907 -2.655027 -1.009975 -1.736543 0.659961 5.578448 2.391709 1.041200 0.000000 -36.284700 9.284393 -1.577353 3.095654 2.458629 0.777548 -10.649767 2.561895 1.497469 -1.389644 0.224531 -0.387590 0.562481 -0.763000 0.000000 -43.014400 1.786472 -1.469881 -3.845088 -0.150793 -1.685186 -3.867098 -6.353530 -1.503863 -2.560378 7.426504 -6.980458 1.163235 -3.928050 -0.383838 2.418765 0.000000 0.000000 0.000000 9.445747 1.502654 -2.764367 -84.436597 -18.968453 15.003531 -179.054152 -55.789347 179.926631 5.192189 -5.125992 -0.278793 -0.091341 1.044200 -0.000000 0.000000 0.000000 0.000000 0.000000 0.000000 0.000000 0.810980 -4.965178 -3.309607 89.097507 21.733249 32.653244 -178.574990 60.554097 179.828822 -11.683876 15.209937 -1.705629 0.159563 -1.126726 -0.000000 0.000000 0.000000 0.000000 0.000000 0.000000 0.000000 
3.540320 17.210325 0.912553 -177.113987 -78.347338 -172.973631 -11.713489 1.913484 -0.399947 -3.424166 22.982026 -13.765320 -2.657415 -1.009611 -1.683712 0.665885 5.617277 2.351671 1.042800 -0.000000 -36.272600 9.275087 -1.592886 3.146528 2.470413 0.840128 -10.665717 2.574273 1.509785 -1.442462 0.235034 -0.298217 0.629373 -0.744100 0.000000 -43.007400 1.883749 -1.487664 -3.938880 -0.165876 -1.717084 -3.870562 -6.518384 -1.529419 -2.519133 7.500783 -7.099877 1.222722 -3.910366 -0.383078 2.436205 0.000000 0.000000 0.000000 9.238787 1.419323 -2.828023 -83.359561 -20.543875 14.227992 -178.940764 -56.932520 179.929149 5.099612 -4.847429 -0.260804 -0.094921 1.030149 -0.000000 0.000000 0.000000 0.000000 0.000000 0.000000 0.000000 0.995475 -5.151390 -3.290220 89.181053 21.864604 32.883276 -178.563292 60.651878 179.828924 -11.642949 15.196188 -1.697532 0.156027 -1.124041 -0.000000 0.000000 0.000000 0.000000 0.000000 0.000000 0.000000 
3.540017 17.210632 0.914189 -177.036822 -78.236534 -173.082149 -11.719836 1.938129 -0.367670 -3.415400 23.044619 -13.804629 -2.658920 -1.008451 -1.629632 0.669984 5.640089 2.316416 1.042300 0.000000 -36.263900 9.266594 -1.608388 3.194010 2.483458 0.886908 -10.671192 2.584294 1.521688 -1.484658 0.243268 -0.239804 0.685639 -0.732600 -0.000000 -42.996800 1.984058 -1.511922 -4.036776 -0.186062 -1.756454 -3.874055 -6.712823 -1.561810 -2.477857 7.600834 -7.234756 1.298803 -3.886406 -0.382097 2.458515 0.000000 0.000000 0.000000 8.999654 1.280701 -2.885428 -82.065387 -22.425522 13.363596 -178.848955 -58.313352 179.931075 5.040105 -4.570914 -0.244927 -0.099089 1.015654 -0.000000 0.000000 0.000000 0.000000 0.000000 0.000000 0.000000 1.209005 -5.355998 -3.266807 89.262218 21.995328 33.106143 -178.546810 60.752540 179.828861 -11.607165 15.182709 -1.690149 0.152125 -1.121078 -0.000000 0.000000 0.000000 0.000000 0.000000 0.000000 0.000000 
3.540808 17.210856 0.915788 -176.972417 -78.171422 -173.187756 -11.724935 1.965360 -0.327850 -3.406182 23.069850 -13.835826 -2.658445 -1.006650 -1.584923 0.672911 5.653229 2.291286 1.041500 0.000001 -36.258200 9.259586 -1.622440 3.235487 2.495457 0.916281 -10.664425 2.591126 1.532675 -1.513568 0.248647 -0.217010 0.728565 -0.729500 0.000001 -42.983600 2.083129 -1.545618 -4.135094 -0.212283 -1.805938 -3.875490 -6.939881 -1.603547 -2.430295 7.732471 -7.371124 1.383342 -3.853108 -0.380619 2.483375 0.000000 0.000000 0.000000 8.710434 1.123823 -2.923789 -80.532318 -24.653927 12.440222 -178.787326 -59.980304 179.932162 5.031072 -4.284484 -0.231362 -0.104038 1.000177 -0.000000 0.000000 0.000000 0.000000 0.000000 0.000000 0.000000 1.445483 -5.557236 -3.245336 89.343217 22.106284 33.302725 -178.522728 60.841019 179.828645 -11.571299 15.169625 -1.682780 0.147580 -1.117903 -0.000000 0.000000 0.000000 0.000000 0.000000 0.000000 0.000000 
